<svg width="150" height="42" viewBox="0 0 150 42" fill="none" xmlns="http://www.w3.org/2000/svg">
<rect width="150" height="42" fill="#1E1E1E"/>
<path d="M1.15625 0.4375L1.34375 0.40625H1.59375C3.42708 0.614583 4.51042 0.875 4.84375 1.1875C4.98958 1.1875 5.125 1.59375 5.25 2.40625L5.09375 2.6875V2.78125C5.32292 3.05208 5.47917 4.36458 5.5625 6.71875C5.5625 10.8646 5.67708 13.5417 5.90625 14.75H6.03125C7.15625 13.8333 8.89583 12.5729 11.25 10.9688C11.4375 10.9688 11.5938 10.0417 11.7188 8.1875C11.7188 7.75 11.9271 7.53125 12.3438 7.53125L13.5938 7.4375C15.4688 7.4375 16.5938 7.63542 16.9688 8.03125V8.09375L16.875 8.1875C16.5 8.04167 16.2083 7.96875 16 7.96875L15.9062 8.09375V8.125C15.9062 8.25 16.2083 8.34375 16.8125 8.40625C16.9792 8.40625 17.0625 8.89583 17.0625 9.875C17.0625 10.2708 16.9062 10.4688 16.5938 10.4688C16.5104 10.4688 16.3542 10.6146 16.125 10.9062L16.0312 10.9375L15.4062 10.9062H15.2812C15.2812 11.1354 15.0417 11.3646 14.5625 11.5938C14.4792 11.5938 14.4375 11.6458 14.4375 11.75L14.5625 11.9688L11.5625 14.0312L11.5312 14.125C11.5521 14.25 12.5833 16.3646 14.625 20.4688C14.9167 21.0729 15.1042 21.5521 15.1875 21.9062H15L14.8125 21.7188H14.7188C14.7188 21.9688 15.1146 22.0938 15.9062 22.0938C17.3021 22.0938 18 22.2188 18 22.4688L17.75 22.7812C18.0208 23.2396 18.1562 23.9167 18.1562 24.8125C18.1562 25.1042 18.0104 25.25 17.7188 25.25L17.4375 25.2812C16.9375 25.1979 15.7188 25.1562 13.7812 25.1562H13.5938C13.3438 25.1562 13.1562 24.8333 13.0312 24.1875C12.9062 23.1042 12.6979 22.1146 12.4062 21.2188C11.9271 20.1354 11.2292 18.6875 10.3125 16.875C9.95833 15.8333 9.6875 15.3125 9.5 15.3125C9.14583 15.3542 8.58333 15.6771 7.8125 16.2812C7.54167 16.5104 7.34375 16.625 7.21875 16.625C7.09375 16.5833 7.03125 16.5417 7.03125 16.5V16.4688L7.125 16.3125V16.2812H6.9375C6.8125 16.2812 6.67708 16.5625 6.53125 17.125L6.5625 17.3125C6.39583 17.4167 6.3125 17.5938 6.3125 17.8438L6.375 21.1875C6.375 21.4583 6.82292 21.6354 7.71875 21.7188C7.86458 21.8438 8.1875 21.9896 8.6875 22.1562L8.8125 22.4688L8.78125 22.9375V23.2812L8.875 23.7188V23.7812C8.79167 23.9479 8.63542 24.0833 8.40625 24.1875L8.375 24.1562H8.1875V24.2812C8.1875 24.4271 8.33333 24.5521 8.625 24.6562V24.7188C8.625 24.7812 8.5 24.8333 8.25 24.875L6.78125 24.5C4.76042 24.3958 3.44792 24.2812 2.84375 24.1562L2.40625 24.25C2.13542 24.125 2 23.7917 2 23.25V23.0625L1.96875 23.0312C1.96875 22.6771 2.125 22.3854 2.4375 22.1562H2.5625V22.625L2.6875 22.75H3.09375L2.96875 22.5938V22.5L3.21875 22.4688H3.53125L3.15625 22.0938L3.59375 22V21.9062C3.57292 21.8438 3.46875 21.8125 3.28125 21.8125H3.15625L2.5 21.9062V21.8438C2.5 21.6979 2.96875 21.5521 3.90625 21.4062C4.13542 21.3438 4.48958 21.2812 4.96875 21.2188L5.0625 21.0938V21.0625C5.0625 21.0208 4.91667 21 4.625 21C4.45833 21 4.375 20.1042 4.375 18.3125C4.25 16.1458 4.05208 14.6562 3.78125 13.8438C3.65625 8.65625 3.48958 5.5625 3.28125 4.5625C3.28125 4.5 2.91667 4.4375 2.1875 4.375L1.28125 4.59375C1.05208 4.36458 0.927083 4.17708 0.90625 4.03125L0.84375 2.09375L0.8125 1.96875C0.854167 1.65625 0.895833 1.5 0.9375 1.5L1.28125 1.5625V1.5C1.28125 1.41667 1.19792 1.26042 1.03125 1.03125V0.875C1.19792 0.875 1.28125 0.84375 1.28125 0.78125L1.15625 0.5625V0.4375ZM4.0625 2.21875V2.28125C4.14583 2.48958 4.27083 2.59375 4.4375 2.59375C4.58333 2.42708 4.65625 2.23958 4.65625 2.03125L4.53125 2C4.30208 2 4.14583 2.07292 4.0625 2.21875ZM2.09375 2.71875V2.78125C2.09375 2.86458 2.25 2.9375 2.5625 3V3.0625C2.16667 3.08333 1.96875 3.14583 1.96875 3.25V3.375L2.0625 3.46875H2.375C2.6875 3.46875 2.91667 3.28125 3.0625 2.90625L3.1875 2.78125C3.1875 2.65625 2.9375 2.59375 2.4375 2.59375H2.3125C2.16667 2.61458 2.09375 2.65625 2.09375 2.71875ZM4.5625 5.46875L4.5 5.59375V6.21875C4.5 6.71875 4.55208 6.96875 4.65625 6.96875H4.6875L4.78125 6.875V6.4375C4.76042 5.79167 4.6875 5.46875 4.5625 5.46875ZM12.8125 7.59375L12.625 7.625V7.71875L12.6562 7.8125H12.8125L12.875 7.71875V7.65625L12.8125 7.59375ZM12.0625 9.40625C12.0833 9.67708 12.125 9.8125 12.1875 9.8125H12.4062C12.4688 9.8125 12.5 9.77083 12.5 9.6875L12.3438 9.3125L12.5 8.75V8.65625H12.4375C12.1875 8.78125 12.0625 9.03125 12.0625 9.40625ZM14.9062 9.65625C14.9062 9.71875 15.2396 9.77083 15.9062 9.8125C16.1354 9.77083 16.25 9.71875 16.25 9.65625V9.53125H16.0312H15.4062C15.0729 9.53125 14.9062 9.57292 14.9062 9.65625ZM4.5625 10H4.5V10.1562L4.5625 10.2188L4.6875 10.0938L4.5625 10ZM11.9375 10.0938L12.0625 10.2188H12.0938C12.2604 10.2188 12.3542 10.1771 12.375 10.0938V10H12.25C12.0833 10 11.9792 10.0312 11.9375 10.0938ZM11.625 11.5312V11.5625H11.6562C11.7396 11.5625 12.0625 11.375 12.625 11C12.8333 10.9792 12.9375 10.9167 12.9375 10.8125V10.6875H12.75C12.5 10.6875 12.125 10.9688 11.625 11.5312ZM11.5625 12.9062V13H11.625C12.3958 12.7917 13.375 12.1875 14.5625 11.1875L14.625 11.0625H14.5625C13.5208 11.4375 12.5208 12.0521 11.5625 12.9062ZM6.1875 15.1875V15.2812H6.3125C6.58333 15.2812 6.8125 15.1562 7 14.9062V14.8125C6.70833 14.8125 6.4375 14.9375 6.1875 15.1875ZM9.96875 15.125C10.1146 15.5208 10.2708 15.7188 10.4375 15.7188H10.4688V15.6875C10.4479 15.2292 10.3125 15 10.0625 15C10 15 9.96875 15.0417 9.96875 15.125ZM5.34375 15.2188L5.25 15.375V15.4062H5.34375L5.40625 15.3125V15.2188H5.34375ZM7.46875 15.9062V15.9688H7.53125C7.94792 15.8021 8.3125 15.5729 8.625 15.2812V15.2188C7.85417 15.5521 7.46875 15.7812 7.46875 15.9062ZM5.28125 16.8125V17.0938L5.34375 17.1562H5.4375C5.54167 17.1146 5.59375 17 5.59375 16.8125V16.75C5.59375 16.5208 5.55208 16.2917 5.46875 16.0625H5.4375C5.33333 16.0625 5.28125 16.3125 5.28125 16.8125ZM11.1562 16.7812H11.0625V16.8125C11.2708 17.6042 11.6458 18.4792 12.1875 19.4375H12.3438V19.3438C12.3438 18.9062 11.9479 18.0521 11.1562 16.7812ZM5.25 18.0312V18.4688L5.34375 18.5312C5.51042 18.5312 5.59375 18.4271 5.59375 18.2188V17.7188L5.53125 17.6562H5.4375C5.3125 17.6771 5.25 17.8021 5.25 18.0312ZM12.8125 17.9062H12.7188V17.9688L12.8438 18.0938H12.875V17.9688L12.8125 17.9062ZM5.59375 19.2188H5.46875L5.4375 19.4062V19.7188H5.46875C5.55208 19.6979 5.59375 19.5938 5.59375 19.4062V19.2188ZM12.5 19.7812H12.4375V19.8438C12.6042 20.3646 12.7812 20.6875 12.9688 20.8125H13.0938C13.0938 20.6458 12.9062 20.3021 12.5312 19.7812H12.5ZM5.28125 21.0938L5.4375 21.25H5.46875C5.57292 21.2083 5.625 21.125 5.625 21C5.625 20.8542 5.59375 20.7812 5.53125 20.7812C5.36458 20.8854 5.28125 20.9896 5.28125 21.0938ZM13.7188 21.8438V21.9062L13.8125 22.0312H14.0625L14.1875 21.9062C14.125 21.7812 14.0312 21.7188 13.9062 21.7188C13.7812 21.7396 13.7188 21.7812 13.7188 21.8438ZM8.40625 22.4062H8.3125V22.4688L8.4375 22.5625H8.46875V22.4688L8.40625 22.4062ZM7.25 22.7812C7.39583 23.0521 7.61458 23.1875 7.90625 23.1875H7.9375L8.03125 23.0938C7.94792 22.8438 7.84375 22.6771 7.71875 22.5938H7.59375C7.42708 22.5938 7.3125 22.6562 7.25 22.7812ZM17.5625 22.7188H17.4688V22.875L17.5625 22.9375H17.6562V22.7812L17.5625 22.7188ZM5.21875 22.7812H5.15625V22.875H5.28125L5.21875 22.7812ZM6.25 22.7812L6.1875 22.875H6.34375L6.25 22.7812ZM2.875 23.1562V23.1875L2.90625 23.25V23.2812L4.375 23.3125H4.5625C5.22917 23.3125 5.5625 23.2604 5.5625 23.1562V23.0938C5.5625 23.0521 5.33333 23.0208 4.875 23C3.70833 23.0417 3.04167 23.0938 2.875 23.1562ZM15.5938 23.0938L15.5 23.1875L15.6562 23.3125H15.7812L15.9062 23.1875L15.8125 23.0938H15.5938ZM16.4375 23.25H16.125V23.2812L16.2812 23.375H16.4375V23.25ZM17.5625 23.7188V24.25H17.5938C17.6771 24.25 17.7188 24.0312 17.7188 23.5938V23.375C17.6146 23.4167 17.5625 23.5312 17.5625 23.7188ZM6.53125 23.4062L6.4375 23.4688V23.5625L6.90625 23.5938H7.09375V23.5625C7.09375 23.4583 6.90625 23.4062 6.53125 23.4062ZM3.875 23.6562L3.78125 23.7188L7.15625 24.1875V24.0938C7.15625 23.8021 6.52083 23.6562 5.25 23.6562H3.875ZM7.59375 24.0625L7.46875 24.0938V24.1562L7.53125 24.25H7.78125L7.84375 24.1562C7.82292 24.0938 7.73958 24.0625 7.59375 24.0625ZM15.3438 24.7188V24.75H15.4688L16.125 24.8125L16.875 24.75H16.9688L17.0625 24.6875V24.6562L16.875 24.625H15.6562C15.4479 24.625 15.3438 24.6562 15.3438 24.7188ZM23.2812 1.9375L24.3438 1.78125C25.0729 1.78125 25.6458 2.15625 26.0625 2.90625L26.2812 3.90625C26.2396 4.30208 26.0104 4.82292 25.5938 5.46875C25.3229 5.73958 24.9062 5.875 24.3438 5.875C23.0312 5.875 22.2188 5.67708 21.9062 5.28125C21.5938 4.86458 21.4479 4.28125 21.4688 3.53125C21.3854 3.53125 21.3438 3.51042 21.3438 3.46875V3.40625C21.9688 2.42708 22.6146 1.9375 23.2812 1.9375ZM22.6562 2.71875V2.75C23.3646 2.66667 23.7188 2.57292 23.7188 2.46875L23.5625 2.40625C22.9583 2.51042 22.6562 2.61458 22.6562 2.71875ZM23.1875 3.625H23.2188L23.4062 3.65625H23.4688C23.6979 3.65625 23.8438 3.57292 23.9062 3.40625L23.875 3.34375H23.5C23.3333 3.34375 23.2292 3.4375 23.1875 3.625ZM25.4375 3.34375L25.3438 3.5V3.625H25.375L25.4688 3.5V3.34375H25.4375ZM24.6875 4.375V4.46875H24.8125C24.9583 4.46875 25.0729 4.39583 25.1562 4.25V4.15625H25.0938C24.9479 4.15625 24.8125 4.22917 24.6875 4.375ZM24 4.9375L23.9062 5.03125V5.09375H24.4688L24.5625 5.03125L24.4688 4.9375H24ZM20.0312 7.90625H20.125C20.2917 8.05208 20.5 8.125 20.75 8.125L21.1562 7.9375C23.9896 7.9375 25.4062 8.02083 25.4062 8.1875L25.4375 8.40625V8.9375C25.625 9.35417 25.7188 9.75 25.7188 10.125V10.625C25.4688 14.0208 25.3021 16.7708 25.2188 18.875C25.1771 19 25.1354 19.2188 25.0938 19.5312C25.1146 19.6146 25.2083 19.6562 25.375 19.6562H25.4688C26.5938 19.6562 27.1562 19.7917 27.1562 20.0625L27.125 20.125V20.3125C27.375 20.8125 27.5 21.6042 27.5 22.6875L27.625 23.9375L27.5312 24L26.1562 24.0625H23.0312C20.6979 24.0625 19.5312 23.875 19.5312 23.5C19.5312 23.2708 19.4688 23.0417 19.3438 22.8125C19.4062 22.6667 19.5104 22.5521 19.6562 22.4688H19.75C19.8333 22.5521 19.9271 22.5938 20.0312 22.5938H20.0938C20.6979 22.5938 21.4167 22.5417 22.25 22.4375V22.375C20.4583 22.25 19.5625 22.1042 19.5625 21.9375L19.5312 21.6875V21.3438L19.4688 20.5312C19.4688 20.3229 20.25 20.2188 21.8125 20.2188C22.0208 20.2188 22.125 19.75 22.125 18.8125L22.5 10.5938H22.4375C21.8542 10.5938 21.5625 10.5521 21.5625 10.4688C21.5625 10.4479 21.5938 10.4167 21.6562 10.375C20.4062 10.375 19.7812 10.2292 19.7812 9.9375C19.6979 9.91667 19.6562 9.83333 19.6562 9.6875L19.8125 9.3125C19.8125 9.22917 19.75 9.11458 19.625 8.96875C19.7917 8.80208 19.9062 8.46875 19.9688 7.96875L20.0312 7.90625ZM20.5312 8.53125V8.65625H20.6875C21.2292 8.65625 21.5 8.61458 21.5 8.53125L21.4375 8.40625H21.3438C20.8021 8.40625 20.5312 8.44792 20.5312 8.53125ZM24.7812 8.3125L24.6875 8.40625L24.8125 8.5H24.875V8.40625L24.7812 8.3125ZM21.2188 8.96875H20.6562V9.0625C20.6562 9.14583 20.8021 9.1875 21.0938 9.1875H21.4375H21.5312H22.5625C22.875 9.1875 23.0312 9.13542 23.0312 9.03125V9C23.0312 8.89583 22.4271 8.88542 21.2188 8.96875ZM24 9L23.7188 8.96875V9.03125C23.8646 9.03125 24.0417 9.13542 24.25 9.34375H24.3125C24.3542 9.34375 24.375 9.3125 24.375 9.25H24.4375C24.5208 9.25 24.5729 9.34375 24.5938 9.53125H24.6562L25.0938 9.21875V9.03125L24.4375 9H24ZM23.875 10.75L24.0312 11.2188L23.8125 11.7812C23.8958 11.9688 23.9688 12.0625 24.0312 12.0625H24.0625L24.125 11.875V11.6875C24.125 10.9375 24.2396 10.5625 24.4688 10.5625L24.5625 10.4375V10.3125L24.4688 10.2188H24.2812C24.0104 10.2188 23.875 10.3958 23.875 10.75ZM22.9062 13.7188L22.8125 17.75C22.8333 17.8958 22.8646 17.9688 22.9062 17.9688C22.9688 17.9688 23.0104 17.875 23.0312 17.6875L23 17.2188C23.1042 17.1146 23.2188 16.6979 23.3438 15.9688V15.7812L23.2812 15.3438C23.4062 15.2396 23.4688 15.1667 23.4688 15.125C23.3854 14.8958 23.3438 14.6667 23.3438 14.4375V14.375C23.4271 14.375 23.5312 13.2083 23.6562 10.875C23.5938 10.7083 23.5312 10.625 23.4688 10.625C23.1562 10.625 22.9688 11.6562 22.9062 13.7188ZM24.4375 10.9688L24.3125 11V11.1875C24.3125 11.3125 24.3646 11.4062 24.4688 11.4688H24.5625L24.6562 11.3438V11.1875C24.6146 11.0833 24.5417 11.0104 24.4375 10.9688ZM24.2812 16.0625H24.125C23.9583 16.8333 23.875 17.4062 23.875 17.7812H23.9062C24.0104 17.7812 24.1458 17.3542 24.3125 16.5V16.2812L24.2812 16.0625ZM23.6875 19V19.2188H23.75C23.8542 19.1771 23.9062 19.0521 23.9062 18.8438V18.625H23.8125C23.7708 18.625 23.7292 18.75 23.6875 19ZM23.75 19.4688L23.6562 19.5938V19.75H23.75L23.875 19.6562V19.5625L23.7812 19.4688H23.75ZM26.25 20.2188L26.1562 20.25C26.2812 20.3542 26.5104 20.4167 26.8438 20.4375V20.3438C26.8438 20.2604 26.7083 20.2188 26.4375 20.2188H26.25ZM26.375 21.5312L26 21.625C26.0417 21.875 26.2292 22 26.5625 22H26.6562V21.9062L26.5938 21.8125C26.5938 21.7917 26.6771 21.7292 26.8438 21.625V21.4688C26.8438 21.3229 26.8021 21.2396 26.7188 21.2188H26.5938C26.5312 21.2396 26.4583 21.3438 26.375 21.5312ZM20.4062 21.25L20.1875 21.3125V21.3438C20.3542 21.5104 21 21.6042 22.125 21.625H22.3438C22.5104 21.625 22.6146 21.5729 22.6562 21.4688V21.4062C21.7812 21.3021 21.0312 21.25 20.4062 21.25ZM23.3438 21.625L23.4688 21.7812C23.6562 21.7812 23.75 21.6771 23.75 21.4688H23.5938C23.4688 21.4688 23.3854 21.5208 23.3438 21.625ZM26.2812 22.25L26.1875 22.375V22.4375H26.25L26.3438 22.3125V22.25H26.2812ZM23.875 22.4375L23.4688 22.4688H23.0312V22.5938L23.4688 22.625L24.375 22.5625V22.4688H24.25L23.875 22.4375ZM27.0625 23.5L26.9375 23.5938V23.6875H27.125L27.1562 23.5938L27.125 23.5H27.0625ZM40.6562 0.4375L42.0312 0.40625C42.8854 0.572917 43.3125 0.697917 43.3125 0.78125C43.3542 0.78125 43.3958 1.08333 43.4375 1.6875C43.6667 1.95833 43.7812 2.13542 43.7812 2.21875C43.6771 3.21875 43.5833 5.26042 43.5 8.34375C43.4583 8.34375 43.4375 8.44792 43.4375 8.65625C43.2708 8.76042 43.1875 8.875 43.1875 9V9.5C43.1875 9.91667 43.0833 10.3958 42.875 10.9375L42.8438 11.375C42.8438 11.4583 42.9583 11.5208 43.1875 11.5625V11.7812C42.875 14.4271 42.7188 16.1562 42.7188 16.9688C42.7188 17.9271 42.6562 18.4062 42.5312 18.4062V18.4688C42.6562 18.4688 42.7292 18.6042 42.75 18.875L42.7188 19.0938V19.2188C42.7188 19.6146 42.5938 20.5729 42.3438 22.0938V22.8125C43.3854 23.0417 43.9062 23.3438 43.9062 23.7188L43.75 23.875V24.1562L43.9062 24.4062C43.7396 24.8438 43.1458 25.0625 42.125 25.0625H41.9375L41.7812 24.8125H41.4375L40.5938 25L39.4062 24.9688C39.3229 24.9688 39.2292 24.4375 39.125 23.375L39.1875 22.375C38.9167 22.375 38.4896 22.6042 37.9062 23.0625C36.1771 24.0208 34.6562 24.5417 33.3438 24.625C32.1354 24.3125 31.0521 23.7083 30.0938 22.8125C29.7812 22.5 29.4583 22.0104 29.125 21.3438C28.75 20.8229 28.5625 20.5104 28.5625 20.4062V20.2812H28.6562C28.8021 20.3854 29.0729 20.7396 29.4688 21.3438L29.625 21.375L29.6562 21.3438V20.9375C29.6562 20.5208 29.4375 20.0208 29 19.4375H28.8438C28.7188 19.4375 28.6458 19.625 28.625 20H28.5312L28.4688 19.8438C28.5104 19.0312 28.5417 18.5 28.5625 18.25H28.75L28.7812 18.5312H28.8438C28.9479 18.4896 29 18.3854 29 18.2188V17.625L28.9375 17.5312C28.875 17.5312 28.8438 17.6146 28.8438 17.7812L28.6562 17.9688C28.6146 17.9688 28.5833 17.8958 28.5625 17.75C28.5625 16.1875 29.0729 14.5208 30.0938 12.75C30.5729 11.9167 31.0521 11.25 31.5312 10.75C32.1979 10.1458 33.25 9.84375 34.6875 9.84375H34.9688C37.1771 9.84375 38.9792 10.4167 40.375 11.5625L40.5938 11.6875H40.6875C40.875 10.7708 41.0625 8.44792 41.25 4.71875C41.3542 4.55208 41.4375 4.46875 41.5 4.46875C40.8333 4.03125 40.375 3.8125 40.125 3.8125C39.9375 3.8125 39.8229 3.09375 39.7812 1.65625C39.8229 1.61458 39.9896 1.58333 40.2812 1.5625V1.4375C40.2604 1.35417 40.1771 1.3125 40.0312 1.3125C39.9271 1.25 39.875 1.17708 39.875 1.09375C39.875 0.885417 40.1146 0.78125 40.5938 0.78125V0.65625L40.4688 0.53125V0.46875L40.6562 0.4375ZM40.6875 1.78125L40.6562 1.875V1.90625H41.0312V1.875L40.9375 1.78125H40.6875ZM42.4375 2.09375L42.375 2.1875V2.21875H42.8438V2.125L42.625 2.09375H42.4375ZM41.4688 2.6875L41.5312 2.78125C42.0312 2.76042 42.2812 2.69792 42.2812 2.59375L42.1562 2.5H41.7812C41.6354 2.5 41.5312 2.5625 41.4688 2.6875ZM40.6562 2.5625L40.5938 2.65625V2.71875L40.8125 2.78125C40.9375 2.78125 41.0104 2.73958 41.0312 2.65625L40.9375 2.5625H40.6562ZM33.7188 10.6562L33.625 10.7812V10.9375L33.7188 11H33.875L34.0312 10.875V10.7812L33.9062 10.6562H33.7188ZM35.5625 11L35.625 11.125H37V11C36.875 10.875 36.5312 10.8021 35.9688 10.7812H35.6562C35.5938 10.8021 35.5625 10.875 35.5625 11ZM43.0312 10.9375V10.7812H43.1875V10.9375H43.0312ZM31.5938 11.625V11.75L31.6562 11.7812H31.7812C32.5104 11.5938 32.875 11.375 32.875 11.125C32.8542 11.0417 32.75 11 32.5625 11H32.4062C32.0938 11 31.8229 11.2083 31.5938 11.625ZM38.3125 11.3125L37.875 11.3438H37.8125V11.4375C38.3125 11.6458 38.6354 11.75 38.7812 11.75H38.8125C38.8125 11.5417 38.6458 11.3958 38.3125 11.3125ZM41.3438 11.4688H41.2188C41.2188 11.6771 41.2604 11.7812 41.3438 11.7812L41.375 11.75V11.6562L41.3438 11.4688ZM34.75 12.0312L34.6875 12.0938L34.75 12.125H34.875L34.9688 12.0625V12.0312H34.75ZM30.2188 14.2188V14.3125H30.3125C30.4375 14.2708 30.5729 14.0312 30.7188 13.5938C31.3438 12.7188 31.7604 12.2812 31.9688 12.2812L32.0938 12.0625H31.9062C31.8229 12.0625 31.4792 12.2708 30.875 12.6875C30.4792 13.2708 30.2604 13.7812 30.2188 14.2188ZM33.7188 12.25L33.6562 12.3438H33.9688L34.0625 12.2812V12.25H33.7188ZM35.3438 12.4062L35.4062 12.4375H35.4688L36.1562 12.3438V12.2812L35.9375 12.25C35.5417 12.2708 35.3438 12.3229 35.3438 12.4062ZM37 12.25L36.9375 12.3438L37.0312 12.4375H37.2188L37.2812 12.3438C37.2396 12.2812 37.1562 12.25 37.0312 12.25H37ZM38.4375 12.2812H38.3125L38.4375 12.4062L38.5 12.3438L38.4375 12.2812ZM39.125 12.4688H38.7812C38.7812 12.5521 39.0833 12.6771 39.6875 12.8438H39.7188V12.75C39.5521 12.5625 39.3542 12.4688 39.125 12.4688ZM30.4062 18.5625V19.0312C30.4062 19.3229 30.8021 20.1667 31.5938 21.5625C32.1771 21.875 32.8021 22.0312 33.4688 22.0312C34.9062 22.0312 36.3021 21.6875 37.6562 21C38.2188 20.1458 38.7083 19.7188 39.125 19.7188C39.3542 19.4896 39.6042 18.7083 39.875 17.375C40.0417 17 40.125 16.6146 40.125 16.2188V15.9062C40.125 15.0312 40.0104 14.5938 39.7812 14.5938C39.3021 14.1562 39.0625 13.8958 39.0625 13.8125L39.1875 13.625C39.1875 13.5417 38.8854 13.4167 38.2812 13.25L38.0938 13.125L38.125 13.0625H38.5938V13.0312C38.5938 12.8229 37.4583 12.7083 35.1875 12.6875L34.75 12.5938C33.0833 12.7604 32.25 12.9792 32.25 13.25C31.4792 14.1667 30.9792 15.2917 30.75 16.625C30.5208 17.4167 30.4062 18.0625 30.4062 18.5625ZM39.5312 13.625L39.4062 13.75V14L39.5625 14.1562H39.6562C39.7396 14.1354 39.7812 14.0521 39.7812 13.9062C39.7812 13.7812 39.7188 13.6875 39.5938 13.625H39.5312ZM29.9062 17C29.9062 17.0625 29.9375 17.0938 30 17.0938C30.1458 17.0938 30.25 16.8854 30.3125 16.4688V16.2812H30.2188C30.1146 16.2812 30.0104 16.5208 29.9062 17ZM39.8438 21.7188V21.9062C39.9688 21.9062 40.0312 22 40.0312 22.1875H40.0938L40.25 22.0312V21.7812C40.1667 21.7188 40.125 21.6146 40.125 21.4688H40.0312C39.9062 21.4896 39.8438 21.5729 39.8438 21.7188ZM37.5 21.9688V22.0938H37.5312C37.7396 22.0104 37.9062 21.875 38.0312 21.6875V21.625L37.9688 21.5625H37.9062C37.7604 21.625 37.625 21.7604 37.5 21.9688ZM34.375 22.375V22.4688H34.75C36.125 22.3854 36.8854 22.1875 37.0312 21.875V21.7812H36.9375C35.3333 22.0521 34.4792 22.25 34.375 22.375ZM41.5312 21.9062H41.5L41.4688 22.1562V22.5625L41.5312 22.6562H41.5938L41.6562 22.5625V22.25C41.6562 22.0417 41.6146 21.9271 41.5312 21.9062ZM30.4688 22.1875H30.3438V22.2812C30.3438 22.4062 30.6875 22.5 31.375 22.5625V22.4688C30.8958 22.2812 30.5938 22.1875 30.4688 22.1875ZM31.1875 22.6875L31.0938 22.75C31.0938 22.9792 31.7083 23.2083 32.9375 23.4375H33.0938L33.1562 23.375V23.3438C33.1562 23.1146 32.5625 22.8958 31.375 22.6875H31.1875ZM40.0312 22.8125L39.875 22.9375V23H39.9688L40.0938 22.875V22.8125H40.0312ZM35.1562 23.0625V23.125L35.25 23.1875H35.4375C36.1042 23.1458 36.4375 23.0833 36.4375 23L36.3438 22.9375H35.75C35.3542 22.9375 35.1562 22.9792 35.1562 23.0625ZM41.75 23.0312H41.5938V23.125L41.6562 23.1875H41.8125V23.125L41.75 23.0312ZM33.0625 23.9688V24.0625L33.0938 24.1562H33.5C33.8333 24.1562 34.3229 24.0833 34.9688 23.9375V23.875L34.0625 23.7812C33.3958 23.8229 33.0625 23.8854 33.0625 23.9688ZM42.25 24.0312C42.2708 24.1146 42.375 24.1562 42.5625 24.1562H43.1875L43.4062 24.0938V24.0312C43.4062 23.9688 43.2812 23.9167 43.0312 23.875C42.5104 23.8958 42.25 23.9479 42.25 24.0312ZM56.875 0.4375L58.25 0.40625C59.1042 0.572917 59.5312 0.697917 59.5312 0.78125C59.5729 0.78125 59.6146 1.08333 59.6562 1.6875C59.8854 1.95833 60 2.13542 60 2.21875C59.8958 3.21875 59.8021 5.26042 59.7188 8.34375C59.6771 8.34375 59.6562 8.44792 59.6562 8.65625C59.4896 8.76042 59.4062 8.875 59.4062 9V9.5C59.4062 9.91667 59.3021 10.3958 59.0938 10.9375L59.0625 11.375C59.0625 11.4583 59.1771 11.5208 59.4062 11.5625V11.7812C59.0938 14.4271 58.9375 16.1562 58.9375 16.9688C58.9375 17.9271 58.875 18.4062 58.75 18.4062V18.4688C58.875 18.4688 58.9479 18.6042 58.9688 18.875L58.9375 19.0938V19.2188C58.9375 19.6146 58.8125 20.5729 58.5625 22.0938V22.8125C59.6042 23.0417 60.125 23.3438 60.125 23.7188L59.9688 23.875V24.1562L60.125 24.4062C59.9583 24.8438 59.3646 25.0625 58.3438 25.0625H58.1562L58 24.8125H57.6562L56.8125 25L55.625 24.9688C55.5417 24.9688 55.4479 24.4375 55.3438 23.375L55.4062 22.375C55.1354 22.375 54.7083 22.6042 54.125 23.0625C52.3958 24.0208 50.875 24.5417 49.5625 24.625C48.3542 24.3125 47.2708 23.7083 46.3125 22.8125C46 22.5 45.6771 22.0104 45.3438 21.3438C44.9688 20.8229 44.7812 20.5104 44.7812 20.4062V20.2812H44.875C45.0208 20.3854 45.2917 20.7396 45.6875 21.3438L45.8438 21.375L45.875 21.3438V20.9375C45.875 20.5208 45.6562 20.0208 45.2188 19.4375H45.0625C44.9375 19.4375 44.8646 19.625 44.8438 20H44.75L44.6875 19.8438C44.7292 19.0312 44.7604 18.5 44.7812 18.25H44.9688L45 18.5312H45.0625C45.1667 18.4896 45.2188 18.3854 45.2188 18.2188V17.625L45.1562 17.5312C45.0938 17.5312 45.0625 17.6146 45.0625 17.7812L44.875 17.9688C44.8333 17.9688 44.8021 17.8958 44.7812 17.75C44.7812 16.1875 45.2917 14.5208 46.3125 12.75C46.7917 11.9167 47.2708 11.25 47.75 10.75C48.4167 10.1458 49.4688 9.84375 50.9062 9.84375H51.1875C53.3958 9.84375 55.1979 10.4167 56.5938 11.5625L56.8125 11.6875H56.9062C57.0938 10.7708 57.2812 8.44792 57.4688 4.71875C57.5729 4.55208 57.6562 4.46875 57.7188 4.46875C57.0521 4.03125 56.5938 3.8125 56.3438 3.8125C56.1562 3.8125 56.0417 3.09375 56 1.65625C56.0417 1.61458 56.2083 1.58333 56.5 1.5625V1.4375C56.4792 1.35417 56.3958 1.3125 56.25 1.3125C56.1458 1.25 56.0938 1.17708 56.0938 1.09375C56.0938 0.885417 56.3333 0.78125 56.8125 0.78125V0.65625L56.6875 0.53125V0.46875L56.875 0.4375ZM56.9062 1.78125L56.875 1.875V1.90625H57.25V1.875L57.1562 1.78125H56.9062ZM58.6562 2.09375L58.5938 2.1875V2.21875H59.0625V2.125L58.8438 2.09375H58.6562ZM57.6875 2.6875L57.75 2.78125C58.25 2.76042 58.5 2.69792 58.5 2.59375L58.375 2.5H58C57.8542 2.5 57.75 2.5625 57.6875 2.6875ZM56.875 2.5625L56.8125 2.65625V2.71875L57.0312 2.78125C57.1562 2.78125 57.2292 2.73958 57.25 2.65625L57.1562 2.5625H56.875ZM49.9375 10.6562L49.8438 10.7812V10.9375L49.9375 11H50.0938L50.25 10.875V10.7812L50.125 10.6562H49.9375ZM51.7812 11L51.8438 11.125H53.2188V11C53.0938 10.875 52.75 10.8021 52.1875 10.7812H51.875C51.8125 10.8021 51.7812 10.875 51.7812 11ZM59.25 10.9375V10.7812H59.4062V10.9375H59.25ZM47.8125 11.625V11.75L47.875 11.7812H48C48.7292 11.5938 49.0938 11.375 49.0938 11.125C49.0729 11.0417 48.9688 11 48.7812 11H48.625C48.3125 11 48.0417 11.2083 47.8125 11.625ZM54.5312 11.3125L54.0938 11.3438H54.0312V11.4375C54.5312 11.6458 54.8542 11.75 55 11.75H55.0312C55.0312 11.5417 54.8646 11.3958 54.5312 11.3125ZM57.5625 11.4688H57.4375C57.4375 11.6771 57.4792 11.7812 57.5625 11.7812L57.5938 11.75V11.6562L57.5625 11.4688ZM50.9688 12.0312L50.9062 12.0938L50.9688 12.125H51.0938L51.1875 12.0625V12.0312H50.9688ZM46.4375 14.2188V14.3125H46.5312C46.6562 14.2708 46.7917 14.0312 46.9375 13.5938C47.5625 12.7188 47.9792 12.2812 48.1875 12.2812L48.3125 12.0625H48.125C48.0417 12.0625 47.6979 12.2708 47.0938 12.6875C46.6979 13.2708 46.4792 13.7812 46.4375 14.2188ZM49.9375 12.25L49.875 12.3438H50.1875L50.2812 12.2812V12.25H49.9375ZM51.5625 12.4062L51.625 12.4375H51.6875L52.375 12.3438V12.2812L52.1562 12.25C51.7604 12.2708 51.5625 12.3229 51.5625 12.4062ZM53.2188 12.25L53.1562 12.3438L53.25 12.4375H53.4375L53.5 12.3438C53.4583 12.2812 53.375 12.25 53.25 12.25H53.2188ZM54.6562 12.2812H54.5312L54.6562 12.4062L54.7188 12.3438L54.6562 12.2812ZM55.3438 12.4688H55C55 12.5521 55.3021 12.6771 55.9062 12.8438H55.9375V12.75C55.7708 12.5625 55.5729 12.4688 55.3438 12.4688ZM46.625 18.5625V19.0312C46.625 19.3229 47.0208 20.1667 47.8125 21.5625C48.3958 21.875 49.0208 22.0312 49.6875 22.0312C51.125 22.0312 52.5208 21.6875 53.875 21C54.4375 20.1458 54.9271 19.7188 55.3438 19.7188C55.5729 19.4896 55.8229 18.7083 56.0938 17.375C56.2604 17 56.3438 16.6146 56.3438 16.2188V15.9062C56.3438 15.0312 56.2292 14.5938 56 14.5938C55.5208 14.1562 55.2812 13.8958 55.2812 13.8125L55.4062 13.625C55.4062 13.5417 55.1042 13.4167 54.5 13.25L54.3125 13.125L54.3438 13.0625H54.8125V13.0312C54.8125 12.8229 53.6771 12.7083 51.4062 12.6875L50.9688 12.5938C49.3021 12.7604 48.4688 12.9792 48.4688 13.25C47.6979 14.1667 47.1979 15.2917 46.9688 16.625C46.7396 17.4167 46.625 18.0625 46.625 18.5625ZM55.75 13.625L55.625 13.75V14L55.7812 14.1562H55.875C55.9583 14.1354 56 14.0521 56 13.9062C56 13.7812 55.9375 13.6875 55.8125 13.625H55.75ZM46.125 17C46.125 17.0625 46.1562 17.0938 46.2188 17.0938C46.3646 17.0938 46.4688 16.8854 46.5312 16.4688V16.2812H46.4375C46.3333 16.2812 46.2292 16.5208 46.125 17ZM56.0625 21.7188V21.9062C56.1875 21.9062 56.25 22 56.25 22.1875H56.3125L56.4688 22.0312V21.7812C56.3854 21.7188 56.3438 21.6146 56.3438 21.4688H56.25C56.125 21.4896 56.0625 21.5729 56.0625 21.7188ZM53.7188 21.9688V22.0938H53.75C53.9583 22.0104 54.125 21.875 54.25 21.6875V21.625L54.1875 21.5625H54.125C53.9792 21.625 53.8438 21.7604 53.7188 21.9688ZM50.5938 22.375V22.4688H50.9688C52.3438 22.3854 53.1042 22.1875 53.25 21.875V21.7812H53.1562C51.5521 22.0521 50.6979 22.25 50.5938 22.375ZM57.75 21.9062H57.7188L57.6875 22.1562V22.5625L57.75 22.6562H57.8125L57.875 22.5625V22.25C57.875 22.0417 57.8333 21.9271 57.75 21.9062ZM46.6875 22.1875H46.5625V22.2812C46.5625 22.4062 46.9062 22.5 47.5938 22.5625V22.4688C47.1146 22.2812 46.8125 22.1875 46.6875 22.1875ZM47.4062 22.6875L47.3125 22.75C47.3125 22.9792 47.9271 23.2083 49.1562 23.4375H49.3125L49.375 23.375V23.3438C49.375 23.1146 48.7812 22.8958 47.5938 22.6875H47.4062ZM56.25 22.8125L56.0938 22.9375V23H56.1875L56.3125 22.875V22.8125H56.25ZM51.375 23.0625V23.125L51.4688 23.1875H51.6562C52.3229 23.1458 52.6562 23.0833 52.6562 23L52.5625 22.9375H51.9688C51.5729 22.9375 51.375 22.9792 51.375 23.0625ZM57.9688 23.0312H57.8125V23.125L57.875 23.1875H58.0312V23.125L57.9688 23.0312ZM49.2812 23.9688V24.0625L49.3125 24.1562H49.7188C50.0521 24.1562 50.5417 24.0833 51.1875 23.9375V23.875L50.2812 23.7812C49.6146 23.8229 49.2812 23.8854 49.2812 23.9688ZM58.4688 24.0312C58.4896 24.1146 58.5938 24.1562 58.7812 24.1562H59.4062L59.625 24.0938V24.0312C59.625 23.9688 59.5 23.9167 59.25 23.875C58.7292 23.8958 58.4688 23.9479 58.4688 24.0312ZM69.2188 9.21875L70.0938 9.46875H70.375C71.5625 10.0521 72.6667 10.75 73.6875 11.5625C74.75 12.4792 75.2812 13.1667 75.2812 13.625H75.2188C75.0521 13.3333 74.8854 13.1875 74.7188 13.1875H74.6875C74.625 13.1875 74.5938 13.2292 74.5938 13.3125C74.6771 13.5417 74.8646 13.9375 75.1562 14.5H75.2188C75.2604 14.5 75.3125 14.3958 75.375 14.1875H75.4062C75.4688 14.2083 75.5417 14.5104 75.625 15.0938L75.9062 15.7188L75.8438 16.125L75.9375 17.25C75.7917 17.7708 75.6562 18.4583 75.5312 19.3125C75.4479 19.7083 74.4792 21.1875 72.625 23.75C71.7917 24.5417 70.9792 24.9375 70.1875 24.9375C69.4583 25.0208 68.6354 25.0625 67.7188 25.0625H67.125C66.7708 25.0625 65.8438 24.7604 64.3438 24.1562C62.4479 22.4688 61.5 21.1771 61.5 20.2812C61.2292 19.7188 61 19.1979 60.8125 18.7188C60.8125 18.4479 61.0938 17.5521 61.6562 16.0312C61.6562 15.0729 61.8854 14.4062 62.3438 14.0312C63.3229 11.9271 64.5625 10.5625 66.0625 9.9375C67.375 9.45833 68.4271 9.21875 69.2188 9.21875ZM63.5938 19.0312V19.2188C63.8854 19.7812 64.2083 20.3854 64.5625 21.0312C64.5625 21.2396 64.9583 21.5312 65.75 21.9062C66.125 22.3438 66.8229 22.6875 67.8438 22.9375L68.4062 23C69.3229 22.8125 70.0104 22.6146 70.4688 22.4062L71.5938 21.4688C72.7604 20.2188 73.3229 19.1667 73.2812 18.3125V18.0312C73.1562 17.6979 73.0938 17.1562 73.0938 16.4062C73.0938 15.8229 73.1354 15.3646 73.2188 15.0312C73.2188 14.8854 72.8125 14.5208 72 13.9375C71.4167 13.1042 70.8125 12.5938 70.1875 12.4062H69.8125C67.375 12.5104 66.1562 12.7083 66.1562 13C65.6146 13.5417 65.2396 14.0729 65.0312 14.5938C64.3646 15.3021 64.0312 15.7708 64.0312 16C63.8438 16.8542 63.6979 17.8646 63.5938 19.0312ZM64.5625 11.4688L64.4688 11.625V11.75C64.5938 11.75 65.2292 11.3125 66.375 10.4375L66.625 10.3438L66.8125 10.375C68.2083 10.2292 68.9062 10.0938 68.9062 9.96875V9.9375L68.4062 9.84375C66.9896 9.84375 65.7083 10.3854 64.5625 11.4688ZM67 12.125V12.1562L67.0625 12.25H67.5L69.7188 11.75V11.6875L69.125 11.5625C67.7083 11.7292 67 11.9167 67 12.125ZM62.0938 19.9062L61.9688 20V20.2188C62.0104 20.9271 62.2083 21.3229 62.5625 21.4062L62.5938 21.375V21.3438C62.4479 20.3854 62.2812 19.9062 62.0938 19.9062ZM66.9375 11.0625V11.2188C68.5625 11.0312 69.375 10.9062 69.375 10.8438L69.125 10.75H69.0938C68.0938 10.75 67.375 10.8542 66.9375 11.0625ZM69.5938 9.875C69.6979 10.1667 69.9271 10.3125 70.2812 10.3125L70.5938 10.3438L70.6562 10.3125V10.1562C70.6562 9.92708 70.4375 9.79167 70 9.75C69.7292 9.77083 69.5938 9.8125 69.5938 9.875ZM63.9062 23.0625H63.6875V23.1875C63.9583 23.4583 64.4479 23.5938 65.1562 23.5938H65.5C65.3958 23.4479 64.8646 23.2708 63.9062 23.0625ZM69.0625 24.2188V24.2812C69.0625 24.3438 69.2188 24.3958 69.5312 24.4375C69.8854 24.4375 70.0625 24.3854 70.0625 24.2812V24.2188C70.0417 24.1354 69.9688 24.0521 69.8438 23.9688H69.5625C69.3333 23.9688 69.1667 24.0521 69.0625 24.2188ZM75 18.2812C75.0208 18.9062 75.0729 19.2396 75.1562 19.2812H75.2188C75.2188 19.0521 75.3125 18.8021 75.5 18.5312V18.4375L75.1562 17.9688H75.0938C75.0521 17.9688 75.0208 18.0729 75 18.2812ZM72.9375 12.9062H72.8125C72.9375 13.1771 73.2396 13.4062 73.7188 13.5938H73.8438L73.9375 13.5V13.4688C73.5833 13.0938 73.25 12.9062 72.9375 12.9062ZM72.25 11.9375V12C72.3125 12.25 72.6042 12.5104 73.125 12.7812H73.2188L73.2812 12.6875V12.6562C73.1771 12.5104 72.8333 12.2708 72.25 11.9375ZM70.1875 10.9062L70.125 10.9375C70.5208 11.25 70.8333 11.4062 71.0625 11.4062L71.0938 11.3438V11.3125C70.7604 11.0417 70.4583 10.9062 70.1875 10.9062ZM66.0312 23.4688V23.5625C66.0312 23.6875 66.3229 23.75 66.9062 23.75L66.9375 23.7188V23.6562C66.6667 23.5312 66.3646 23.4688 66.0312 23.4688ZM71.7812 10.5625L71.6875 10.6562C71.9167 10.9479 72.1458 11.0938 72.375 11.0938C72.375 10.8646 72.1979 10.6875 71.8438 10.5625H71.7812ZM64.1562 13.7812V14H64.25C64.5208 13.75 64.6562 13.5521 64.6562 13.4062V13.375H64.5C64.375 13.4583 64.2604 13.5938 64.1562 13.7812ZM71.2188 12.3438C71.3438 12.5521 71.4896 12.6562 71.6562 12.6562L71.6875 12.5938V12.5312C71.6875 12.3438 71.6042 12.25 71.4375 12.25C71.2917 12.2708 71.2188 12.3021 71.2188 12.3438ZM74.25 20.5625V20.5938C74.4167 20.5938 74.5625 20.4271 74.6875 20.0938V20.0312H74.5938C74.4688 20.0312 74.3542 20.2083 74.25 20.5625ZM64.8125 12.1562C65 12.1562 65.1771 12.0312 65.3438 11.7812V11.6875C64.9896 11.7917 64.8125 11.9479 64.8125 12.1562ZM74.75 20H74.9062L75.0312 20.0938C75.0521 19.7604 75 19.6146 74.875 19.6562H74.8125L74.7812 19.4375L74.75 20ZM70.75 24.4375H70.7812C71.1562 24.3125 71.3438 24.2083 71.3438 24.125L71.2812 24.0625C70.9896 24.1667 70.8125 24.2917 70.75 24.4375ZM63.25 21.9688L63.125 22.0312V22.0938L63.375 22.3438H63.5C63.5 22.1979 63.4167 22.0729 63.25 21.9688ZM65.375 23.9062V23.9375H65.7812L65.8438 23.875L65.7812 23.7812H65.7188C65.5104 23.7812 65.3958 23.8229 65.375 23.9062ZM75.5 16.0625L75.4062 16.1562V16.2812L75.5 16.4062L75.625 16.2812V16.1562L75.5312 16.0625H75.5ZM62.2812 15.0625C62.3854 15.0625 62.4792 14.9896 62.5625 14.8438V14.7812C62.375 14.7812 62.2812 14.875 62.2812 15.0625ZM61.3125 18.4375L61.25 18.5312C61.2708 18.7188 61.3021 18.8125 61.3438 18.8125L61.4062 18.7812V18.625L61.3438 18.4375H61.3125ZM69.6562 11.2188V11.25L69.9688 11L69.9062 10.9688C69.6979 11.0938 69.6146 11.1771 69.6562 11.2188ZM62.9062 14H62.9375C63.0208 13.9792 63.0625 13.8958 63.0625 13.75H63C62.9375 13.7917 62.9062 13.875 62.9062 14ZM63.0938 17.75L62.9688 17.875V17.9375H63.0625L63.125 17.8438V17.75H63.0938ZM64.9375 13.0312H64.8125V13.1562H64.875L64.9375 13.0938V13.0312ZM98.9006 8.875H93.9233C93.8324 8.23106 93.6468 7.65909 93.3665 7.15909C93.0862 6.65151 92.7263 6.2197 92.2869 5.86364C91.8475 5.50757 91.34 5.23485 90.7642 5.04545C90.196 4.85606 89.5786 4.76136 88.9119 4.76136C87.7074 4.76136 86.6581 5.06061 85.7642 5.65909C84.8703 6.25 84.1771 7.11364 83.6847 8.25C83.1922 9.37879 82.946 10.75 82.946 12.3636C82.946 14.0227 83.1922 15.4167 83.6847 16.5455C84.1847 17.6742 84.8816 18.5265 85.7756 19.1023C86.6695 19.678 87.7036 19.9659 88.8778 19.9659C89.5369 19.9659 90.1468 19.8788 90.7074 19.7045C91.2756 19.5303 91.7794 19.2765 92.2188 18.9432C92.6581 18.6023 93.0218 18.1894 93.3097 17.7045C93.6051 17.2197 93.8097 16.6667 93.9233 16.0455L98.9006 16.0682C98.7718 17.1364 98.4498 18.1667 97.9347 19.1591C97.4271 20.1439 96.7415 21.0265 95.8778 21.8068C95.0218 22.5795 93.9991 23.1932 92.8097 23.6477C91.6278 24.0947 90.2907 24.3182 88.7983 24.3182C86.7225 24.3182 84.8665 23.8485 83.2301 22.9091C81.6013 21.9697 80.3134 20.6098 79.3665 18.8295C78.4271 17.0492 77.9574 14.8939 77.9574 12.3636C77.9574 9.82576 78.4347 7.66667 79.3892 5.88636C80.3438 4.10606 81.6392 2.75 83.2756 1.81818C84.9119 0.878787 86.7528 0.40909 88.7983 0.40909C90.1468 0.40909 91.3968 0.598484 92.5483 0.977272C93.7074 1.35606 94.7339 1.90909 95.6278 2.63636C96.5218 3.35606 97.2491 4.23864 97.8097 5.28409C98.3778 6.32954 98.7415 7.52651 98.9006 8.875ZM107.315 24.3295C106.202 24.3295 105.209 24.1364 104.338 23.75C103.467 23.3561 102.777 22.7765 102.27 22.0114C101.77 21.2386 101.52 20.2765 101.52 19.125C101.52 18.1553 101.698 17.3409 102.054 16.6818C102.41 16.0227 102.895 15.4924 103.509 15.0909C104.122 14.6894 104.819 14.3864 105.599 14.1818C106.387 13.9773 107.213 13.8333 108.077 13.75C109.092 13.6439 109.91 13.5455 110.531 13.4545C111.152 13.3561 111.603 13.2121 111.884 13.0227C112.164 12.8333 112.304 12.553 112.304 12.1818V12.1136C112.304 11.3939 112.077 10.8371 111.622 10.4432C111.175 10.0492 110.539 9.85227 109.713 9.85227C108.842 9.85227 108.149 10.0455 107.634 10.4318C107.118 10.8106 106.777 11.2879 106.611 11.8636L102.134 11.5C102.361 10.4394 102.808 9.52273 103.474 8.75C104.141 7.9697 105.001 7.37121 106.054 6.95454C107.115 6.5303 108.342 6.31818 109.736 6.31818C110.705 6.31818 111.634 6.43182 112.52 6.65909C113.414 6.88636 114.205 7.23864 114.895 7.71591C115.592 8.19318 116.141 8.80682 116.543 9.55682C116.944 10.2992 117.145 11.1894 117.145 12.2273V24H112.554V21.5795H112.418C112.137 22.125 111.762 22.6061 111.293 23.0227C110.823 23.4318 110.259 23.7538 109.599 23.9886C108.94 24.2159 108.179 24.3295 107.315 24.3295ZM108.702 20.9886C109.414 20.9886 110.043 20.8485 110.588 20.5682C111.134 20.2803 111.562 19.8939 111.872 19.4091C112.183 18.9242 112.338 18.375 112.338 17.7614V15.9091C112.187 16.0076 111.978 16.0985 111.713 16.1818C111.455 16.2576 111.164 16.3295 110.838 16.3977C110.512 16.4583 110.187 16.5152 109.861 16.5682C109.535 16.6136 109.24 16.6553 108.974 16.6932C108.406 16.7765 107.91 16.9091 107.486 17.0909C107.062 17.2727 106.732 17.5189 106.497 17.8295C106.262 18.1326 106.145 18.5114 106.145 18.9659C106.145 19.625 106.384 20.1288 106.861 20.4773C107.346 20.8182 107.959 20.9886 108.702 20.9886ZM120.901 24V6.54545H125.594V9.59091H125.776C126.094 8.50758 126.628 7.68939 127.378 7.13636C128.128 6.57576 128.991 6.29545 129.969 6.29545C130.211 6.29545 130.473 6.31061 130.753 6.34091C131.033 6.37121 131.279 6.41288 131.491 6.46591V10.7614C131.264 10.6932 130.95 10.6326 130.548 10.5795C130.147 10.5265 129.779 10.5 129.446 10.5C128.734 10.5 128.098 10.6553 127.537 10.9659C126.984 11.2689 126.545 11.6932 126.219 12.2386C125.901 12.7841 125.741 13.4129 125.741 14.125V24H120.901ZM141.136 24.3409C139.341 24.3409 137.795 23.9773 136.5 23.25C135.212 22.5152 134.22 21.4773 133.523 20.1364C132.826 18.7879 132.477 17.1932 132.477 15.3523C132.477 13.5568 132.826 11.9811 133.523 10.625C134.22 9.26894 135.201 8.21212 136.466 7.45454C137.739 6.69697 139.231 6.31818 140.943 6.31818C142.095 6.31818 143.167 6.50379 144.159 6.875C145.159 7.23864 146.03 7.78788 146.773 8.52273C147.523 9.25758 148.106 10.1818 148.523 11.2955C148.939 12.4015 149.148 13.697 149.148 15.1818V16.5114H134.409V13.5114H144.591C144.591 12.8144 144.439 12.197 144.136 11.6591C143.833 11.1212 143.413 10.7008 142.875 10.3977C142.345 10.0871 141.727 9.93182 141.023 9.93182C140.288 9.93182 139.636 10.1023 139.068 10.4432C138.508 10.7765 138.068 11.2273 137.75 11.7955C137.432 12.3561 137.269 12.9811 137.261 13.6705V16.5227C137.261 17.3864 137.42 18.1326 137.739 18.7614C138.064 19.3902 138.523 19.875 139.114 20.2159C139.705 20.5568 140.405 20.7273 141.216 20.7273C141.754 20.7273 142.246 20.6515 142.693 20.5C143.14 20.3485 143.523 20.1212 143.841 19.8182C144.159 19.5152 144.402 19.1439 144.568 18.7045L149.045 19C148.818 20.0758 148.352 21.0152 147.648 21.8182C146.951 22.6136 146.049 23.2348 144.943 23.6818C143.845 24.1212 142.576 24.3409 141.136 24.3409ZM64.2727 32.4545C64.2244 31.9687 64.0099 31.5824 63.6293 31.2955C63.2486 31.0085 62.7699 30.8651 62.1932 30.8651C61.7869 30.8651 61.429 30.9347 61.1193 31.0739C60.8125 31.2131 60.571 31.4062 60.3949 31.6534C60.2216 31.8977 60.1349 32.1761 60.1349 32.4886C60.1349 32.7188 60.1847 32.9205 60.2841 33.0938C60.3835 33.267 60.517 33.4162 60.6847 33.5412C60.8551 33.6634 61.0426 33.7685 61.2472 33.8565C61.4545 33.9446 61.6634 34.0185 61.8736 34.0781L62.794 34.3423C63.0724 34.419 63.3509 34.517 63.6293 34.6364C63.9077 34.7557 64.1619 34.9062 64.392 35.0881C64.625 35.267 64.8111 35.4872 64.9503 35.7486C65.0923 36.0071 65.1634 36.3182 65.1634 36.6818C65.1634 37.1477 65.0426 37.5668 64.8011 37.9389C64.5597 38.3111 64.2131 38.6065 63.7614 38.8253C63.3097 39.0412 62.7685 39.1491 62.1378 39.1491C61.544 39.1491 61.0284 39.0511 60.5909 38.8551C60.1534 38.6562 59.8097 38.3821 59.5597 38.0327C59.3097 37.6832 59.169 37.2784 59.1378 36.8182H59.956C59.9844 37.1619 60.098 37.4531 60.2969 37.6918C60.4957 37.9304 60.7543 38.1122 61.0724 38.2372C61.3906 38.3594 61.7457 38.4205 62.1378 38.4205C62.5724 38.4205 62.9588 38.348 63.2969 38.2031C63.6378 38.0554 63.9048 37.8509 64.098 37.5895C64.294 37.3253 64.392 37.0185 64.392 36.669C64.392 36.3736 64.3153 36.1264 64.1619 35.9276C64.0085 35.7259 63.794 35.5568 63.5185 35.4205C63.2457 35.2841 62.929 35.1634 62.5682 35.0582L61.5241 34.7514C60.8395 34.5469 60.3082 34.2642 59.9304 33.9034C59.5526 33.5426 59.3636 33.0824 59.3636 32.5227C59.3636 32.054 59.4886 31.642 59.7386 31.2869C59.9915 30.929 60.3324 30.6506 60.7614 30.4517C61.1932 30.25 61.6776 30.1491 62.2145 30.1491C62.7571 30.1491 63.2372 30.2486 63.6548 30.4474C64.0724 30.6463 64.4034 30.9205 64.6477 31.2699C64.8949 31.6165 65.027 32.0114 65.044 32.4545H64.2727ZM69.5014 32.4545V33.1151H66.3778V32.4545H69.5014ZM67.3537 30.8864H68.1165V37.2912C68.1165 37.5639 68.1634 37.7784 68.2571 37.9347C68.3509 38.0881 68.473 38.1974 68.6236 38.2628C68.7741 38.3253 68.9347 38.3565 69.1051 38.3565C69.2045 38.3565 69.2898 38.3509 69.3608 38.3395C69.4318 38.3253 69.4943 38.3111 69.5483 38.2969L69.7102 38.983C69.6364 39.0114 69.5455 39.0369 69.4375 39.0597C69.3295 39.0852 69.196 39.098 69.0369 39.098C68.7585 39.098 68.4901 39.0369 68.2315 38.9148C67.9759 38.7926 67.7656 38.6108 67.6009 38.3693C67.4361 38.1278 67.3537 37.8281 67.3537 37.4702V30.8864ZM73.0522 39.1491C72.6573 39.1491 72.2965 39.0724 71.9698 38.919C71.6431 38.7628 71.3832 38.5384 71.19 38.2457C70.9968 37.9503 70.9002 37.5923 70.9002 37.1719C70.9002 36.848 70.9613 36.5753 71.0835 36.3537C71.2056 36.1321 71.3789 35.9503 71.6033 35.8082C71.8278 35.6662 72.0934 35.554 72.4002 35.4716C72.707 35.3892 73.0451 35.3253 73.4144 35.2798C73.7809 35.2344 74.0906 35.1946 74.3434 35.1605C74.5991 35.1264 74.7937 35.0724 74.9272 34.9986C75.0607 34.9247 75.1275 34.8054 75.1275 34.6406V34.4872C75.1275 34.0412 74.994 33.6903 74.7269 33.4347C74.4627 33.1761 74.082 33.0469 73.5849 33.0469C73.1133 33.0469 72.7283 33.1506 72.43 33.358C72.1346 33.5653 71.9272 33.8097 71.8079 34.0909L71.0877 33.831C71.2354 33.473 71.44 33.1875 71.7013 32.9744C71.9627 32.7585 72.2553 32.6037 72.5792 32.5099C72.9031 32.4134 73.2312 32.3651 73.5636 32.3651C73.8136 32.3651 74.0735 32.3977 74.3434 32.4631C74.6161 32.5284 74.869 32.642 75.1019 32.804C75.3349 32.9631 75.5238 33.1861 75.6687 33.473C75.8136 33.7571 75.886 34.1179 75.886 34.5554V39H75.1275V37.9645H75.0806C74.9897 38.1577 74.8548 38.3452 74.6758 38.527C74.4968 38.7088 74.2724 38.858 74.0025 38.9744C73.7326 39.0909 73.4158 39.1491 73.0522 39.1491ZM73.1545 38.4545C73.5579 38.4545 73.9073 38.3651 74.2028 38.1861C74.4982 38.0071 74.7255 37.7699 74.8846 37.4744C75.0465 37.1761 75.1275 36.848 75.1275 36.4901V35.544C75.0707 35.598 74.9755 35.6463 74.842 35.6889C74.7113 35.7315 74.5593 35.7699 74.386 35.804C74.2156 35.8352 74.0451 35.8622 73.8746 35.8849C73.7042 35.9077 73.5508 35.9276 73.4144 35.9446C73.0451 35.9901 72.7298 36.0611 72.4684 36.1577C72.207 36.2543 72.0067 36.3878 71.8675 36.5582C71.7283 36.7259 71.6587 36.9418 71.6587 37.206C71.6587 37.6037 71.8008 37.9119 72.0849 38.1307C72.369 38.3466 72.7255 38.4545 73.1545 38.4545ZM78.1978 41.4545C78.0472 41.4545 77.9066 41.4403 77.7759 41.4119C77.6452 41.3835 77.5415 41.3523 77.4648 41.3182L77.6694 40.6491C77.9279 40.7287 78.158 40.7571 78.3597 40.7344C78.5614 40.7145 78.7404 40.6236 78.8967 40.4616C79.0529 40.3026 79.1921 40.0582 79.3143 39.7287L79.5529 39.0639L77.1452 32.4545H77.9677L79.9109 37.9986H79.9705L81.9137 32.4545H82.7362L79.9663 40.0355C79.8498 40.3509 79.7063 40.6136 79.5359 40.8239C79.3654 41.0369 79.168 41.1946 78.9435 41.2969C78.7219 41.402 78.4734 41.4545 78.1978 41.4545ZM94.5881 33H93.7869C93.7273 32.7017 93.6193 32.4261 93.4631 32.1733C93.3097 31.9176 93.1165 31.6946 92.8835 31.5043C92.6506 31.3139 92.3864 31.1662 92.0909 31.0611C91.7955 30.956 91.4759 30.9034 91.1321 30.9034C90.581 30.9034 90.0781 31.0469 89.6236 31.3338C89.1719 31.6207 88.8097 32.0426 88.5369 32.5994C88.267 33.1534 88.1321 33.8324 88.1321 34.6364C88.1321 35.446 88.267 36.1278 88.5369 36.6818C88.8097 37.2358 89.1719 37.6562 89.6236 37.9432C90.0781 38.2273 90.581 38.3693 91.1321 38.3693C91.4759 38.3693 91.7955 38.3168 92.0909 38.2116C92.3864 38.1065 92.6506 37.9602 92.8835 37.7727C93.1165 37.5824 93.3097 37.3594 93.4631 37.1037C93.6193 36.848 93.7273 36.571 93.7869 36.2727H94.5881C94.517 36.6733 94.3835 37.0469 94.1875 37.3935C93.9943 37.7372 93.7472 38.0384 93.446 38.2969C93.1477 38.5554 92.804 38.7571 92.4148 38.902C92.0256 39.0469 91.598 39.1193 91.1321 39.1193C90.3991 39.1193 89.7486 38.9361 89.1804 38.5696C88.6122 38.2003 88.1662 37.6804 87.8423 37.0099C87.5213 36.3395 87.3608 35.5483 87.3608 34.6364C87.3608 33.7244 87.5213 32.9332 87.8423 32.2628C88.1662 31.5923 88.6122 31.0739 89.1804 30.7074C89.7486 30.3381 90.3991 30.1534 91.1321 30.1534C91.598 30.1534 92.0256 30.2259 92.4148 30.3707C92.804 30.5128 93.1477 30.7145 93.446 30.9759C93.7472 31.2344 93.9943 31.5355 94.1875 31.8793C94.3835 32.223 94.517 32.5966 94.5881 33ZM98.8462 39.1364C98.2809 39.1364 97.7809 38.9929 97.3462 38.706C96.9144 38.419 96.5763 38.0227 96.332 37.517C96.0877 37.0085 95.9656 36.4219 95.9656 35.7571C95.9656 35.0866 96.0877 34.4972 96.332 33.9886C96.5763 33.4773 96.9144 33.0795 97.3462 32.7955C97.7809 32.5085 98.2809 32.3651 98.8462 32.3651C99.4116 32.3651 99.9102 32.5085 100.342 32.7955C100.774 33.0824 101.112 33.4801 101.356 33.9886C101.603 34.4972 101.727 35.0866 101.727 35.7571C101.727 36.4219 101.605 37.0085 101.36 37.517C101.116 38.0227 100.777 38.419 100.342 38.706C99.9102 38.9929 99.4116 39.1364 98.8462 39.1364ZM98.8462 38.4418C99.3008 38.4418 99.6857 38.3196 100.001 38.0753C100.316 37.831 100.555 37.5057 100.717 37.0994C100.882 36.6932 100.964 36.2457 100.964 35.7571C100.964 35.2685 100.882 34.8196 100.717 34.4105C100.555 34.0014 100.316 33.6733 100.001 33.4261C99.6857 33.179 99.3008 33.0554 98.8462 33.0554C98.3945 33.0554 98.0096 33.179 97.6914 33.4261C97.3761 33.6733 97.136 34.0014 96.9712 34.4105C96.8093 34.8196 96.7283 35.2685 96.7283 35.7571C96.7283 36.2457 96.8093 36.6932 96.9712 37.0994C97.136 37.5057 97.3761 37.831 97.6914 38.0753C98.0067 38.3196 98.3917 38.4418 98.8462 38.4418ZM104.151 34.9091V39H103.392V32.4545H104.129V33.4815H104.197C104.351 33.1463 104.589 32.8778 104.913 32.6761C105.24 32.4716 105.643 32.3693 106.124 32.3693C106.564 32.3693 106.95 32.4616 107.283 32.6463C107.618 32.8281 107.878 33.0966 108.062 33.4517C108.25 33.8068 108.344 34.2429 108.344 34.7599V39H107.585V34.8068C107.585 34.2699 107.435 33.8452 107.134 33.5327C106.835 33.2202 106.435 33.0639 105.932 33.0639C105.588 33.0639 105.283 33.1378 105.016 33.2855C104.749 33.4332 104.537 33.6463 104.381 33.9247C104.227 34.2003 104.151 34.5284 104.151 34.9091ZM111.1 34.9091V39H110.341V32.4545H111.078V33.4815H111.147C111.3 33.1463 111.539 32.8778 111.863 32.6761C112.189 32.4716 112.593 32.3693 113.073 32.3693C113.513 32.3693 113.9 32.4616 114.232 32.6463C114.567 32.8281 114.827 33.0966 115.012 33.4517C115.199 33.8068 115.293 34.2429 115.293 34.7599V39H114.534V34.8068C114.534 34.2699 114.384 33.8452 114.083 33.5327C113.784 33.2202 113.384 33.0639 112.881 33.0639C112.537 33.0639 112.232 33.1378 111.965 33.2855C111.698 33.4332 111.486 33.6463 111.33 33.9247C111.176 34.2003 111.1 34.5284 111.1 34.9091ZM119.937 39.1364C119.326 39.1364 118.798 38.9943 118.352 38.7102C117.906 38.4233 117.56 38.027 117.316 37.5213C117.075 37.0128 116.954 36.4276 116.954 35.7656C116.954 35.1065 117.075 34.5213 117.316 34.0099C117.56 33.4957 117.897 33.0937 118.326 32.804C118.758 32.5114 119.256 32.3651 119.822 32.3651C120.177 32.3651 120.519 32.4304 120.849 32.5611C121.178 32.6889 121.474 32.8864 121.735 33.1534C121.999 33.4176 122.208 33.7514 122.362 34.1548C122.515 34.5554 122.592 35.0298 122.592 35.5781V35.9531H117.478V35.2841H121.816C121.816 34.8636 121.731 34.4858 121.56 34.1506C121.393 33.8125 121.158 33.5455 120.857 33.3494C120.559 33.1534 120.214 33.0554 119.822 33.0554C119.407 33.0554 119.042 33.1662 118.727 33.3878C118.411 33.6094 118.164 33.902 117.985 34.2656C117.809 34.6293 117.719 35.027 117.717 35.4588V35.8594C117.717 36.3793 117.806 36.8338 117.985 37.223C118.167 37.6094 118.424 37.9091 118.756 38.1222C119.089 38.3352 119.482 38.4418 119.937 38.4418C120.246 38.4418 120.518 38.3935 120.751 38.2969C120.987 38.2003 121.184 38.071 121.343 37.9091C121.505 37.7443 121.627 37.5639 121.71 37.3679L122.43 37.6023C122.33 37.8778 122.167 38.1321 121.94 38.3651C121.715 38.598 121.434 38.7855 121.096 38.9276C120.761 39.0668 120.374 39.1364 119.937 39.1364ZM126.82 39.1364C126.235 39.1364 125.725 38.9901 125.29 38.6974C124.858 38.4048 124.523 38.0043 124.284 37.4957C124.046 36.9872 123.926 36.4077 123.926 35.7571C123.926 35.1009 124.047 34.517 124.289 34.0057C124.533 33.4943 124.871 33.0937 125.303 32.804C125.735 32.5114 126.236 32.3651 126.807 32.3651C127.245 32.3651 127.641 32.4503 127.996 32.6207C128.351 32.7884 128.644 33.0256 128.874 33.3324C129.107 33.6364 129.253 33.9915 129.313 34.3977H128.546C128.466 34.0284 128.275 33.7131 127.971 33.4517C127.669 33.1875 127.286 33.0554 126.82 33.0554C126.402 33.0554 126.033 33.169 125.712 33.3963C125.391 33.6207 125.14 33.9347 124.958 34.3381C124.779 34.7386 124.689 35.2031 124.689 35.7315C124.689 36.2628 124.777 36.733 124.953 37.142C125.13 37.5483 125.377 37.8665 125.695 38.0966C126.016 38.3267 126.391 38.4418 126.82 38.4418C127.11 38.4418 127.374 38.3878 127.613 38.2798C127.854 38.169 128.056 38.0128 128.218 37.8111C128.382 37.6094 128.493 37.3693 128.55 37.0909H129.317C129.26 37.4858 129.12 37.8381 128.895 38.1477C128.674 38.4545 128.385 38.696 128.03 38.8722C127.678 39.0483 127.275 39.1364 126.82 39.1364ZM133.521 32.4545V33.1151H130.397V32.4545H133.521ZM131.373 30.8864H132.136V37.2912C132.136 37.5639 132.183 37.7784 132.277 37.9347C132.37 38.0881 132.493 38.1974 132.643 38.2628C132.794 38.3253 132.954 38.3565 133.125 38.3565C133.224 38.3565 133.309 38.3509 133.38 38.3395C133.451 38.3253 133.514 38.3111 133.568 38.2969L133.73 38.983C133.656 39.0114 133.565 39.0369 133.457 39.0597C133.349 39.0852 133.216 39.098 133.056 39.098C132.778 39.098 132.51 39.0369 132.251 38.9148C131.995 38.7926 131.785 38.6108 131.62 38.3693C131.456 38.1278 131.373 37.8281 131.373 37.4702V30.8864ZM137.82 39.1364C137.209 39.1364 136.68 38.9943 136.234 38.7102C135.788 38.4233 135.443 38.027 135.199 37.5213C134.957 37.0128 134.837 36.4276 134.837 35.7656C134.837 35.1065 134.957 34.5213 135.199 34.0099C135.443 33.4957 135.78 33.0937 136.209 32.804C136.641 32.5114 137.139 32.3651 137.705 32.3651C138.06 32.3651 138.402 32.4304 138.732 32.5611C139.061 32.6889 139.357 32.8864 139.618 33.1534C139.882 33.4176 140.091 33.7514 140.244 34.1548C140.398 34.5554 140.474 35.0298 140.474 35.5781V35.9531H135.361V35.2841H139.699C139.699 34.8636 139.614 34.4858 139.443 34.1506C139.276 33.8125 139.041 33.5455 138.74 33.3494C138.442 33.1534 138.097 33.0554 137.705 33.0554C137.29 33.0554 136.925 33.1662 136.609 33.3878C136.294 33.6094 136.047 33.902 135.868 34.2656C135.692 34.6293 135.602 35.027 135.599 35.4588V35.8594C135.599 36.3793 135.689 36.8338 135.868 37.223C136.05 37.6094 136.307 37.9091 136.639 38.1222C136.972 38.3352 137.365 38.4418 137.82 38.4418C138.129 38.4418 138.401 38.3935 138.634 38.2969C138.869 38.2003 139.067 38.071 139.226 37.9091C139.388 37.7443 139.51 37.5639 139.592 37.3679L140.312 37.6023C140.213 37.8778 140.05 38.1321 139.822 38.3651C139.598 38.598 139.317 38.7855 138.979 38.9276C138.643 39.0668 138.257 39.1364 137.82 39.1364ZM144.502 39.1364C143.966 39.1364 143.495 38.9943 143.092 38.7102C142.689 38.4261 142.373 38.0298 142.146 37.5213C141.922 37.0128 141.809 36.4205 141.809 35.7443C141.809 35.071 141.922 34.4815 142.146 33.9759C142.373 33.4673 142.69 33.0724 143.096 32.7912C143.502 32.5071 143.975 32.3651 144.515 32.3651C144.913 32.3651 145.244 32.4361 145.508 32.5781C145.772 32.7173 145.984 32.8906 146.143 33.098C146.302 33.3054 146.426 33.5071 146.514 33.7031H146.582V30.2727H147.345V39H146.603V37.7855H146.514C146.426 37.9844 146.301 38.1889 146.139 38.3991C145.977 38.6065 145.762 38.7812 145.495 38.9233C145.231 39.0653 144.9 39.1364 144.502 39.1364ZM144.592 38.4418C145.015 38.4418 145.376 38.3267 145.674 38.0966C145.973 37.8636 146.2 37.544 146.356 37.1378C146.515 36.7287 146.595 36.2599 146.595 35.7315C146.595 35.2088 146.517 34.7472 146.36 34.3466C146.204 33.9432 145.977 33.6278 145.679 33.4006C145.38 33.1705 145.018 33.0554 144.592 33.0554C144.154 33.0554 143.785 33.1747 143.484 33.4134C143.186 33.6491 142.958 33.9687 142.802 34.3722C142.649 34.7756 142.572 35.2287 142.572 35.7315C142.572 36.2401 142.65 36.6989 142.806 37.108C142.963 37.517 143.19 37.8423 143.488 38.0838C143.789 38.3224 144.157 38.4418 144.592 38.4418Z" fill="white"/>
</svg>
